<svg xmlns="http://www.w3.org/2000/svg" width="256" height="256" fill="#0078D4" viewBox="0 0 16 16" role="img" aria-label="Archive">
  <!-- Bootstrap Icons "archive", MIT License: https://icons.getbootstrap.com/icons/archive/ -->
  <path d="M0 2a1 1 0 0 1 1-1h14a1 1 0 0 1 1 1v2a1 1 0 0 1-1 1v7.5a2.5 2.5 0 0 1-2.5 2.5h-9A2.5 2.5 0 0 1 1 12.5V5a1 1 0 0 1-1-1V2zm2 3v7.5A1.5 1.5 0 0 0 3.5 14h9a1.5 1.5 0 0 0 1.5-1.5V5H2zm13-3H1v2h14V2z"/>
  <path d="M5 7.5a.5.5 0 0 1 .5-.5h5a.5.5 0 0 1 0 1h-5a.5.5 0 0 1-.5-.5z"/>
</svg>
